# xmcd CD database file
#
# Track frame offsets:
#	183
#	19813
#	37773
#	56235
#	66055
#	86410
#	106103
#	122578
#	142483
#	158975
#	179128
#	200338
#	220808
#	243960
#	256595
#	286283
#
# Disc length: 4421 seconds
#
# Revision: 0
# Processed by: cddbd v1.5.2PL0 Copyright (c) Steve Scherf et al.
# Submitted via: CDex 1.70beta2
#
DISCID=e4114310
DTITLE=Haydn, Franz Joseph - Klassische Kostbarkeiten
DYEAR=1990
DGENRE=Klassik
TTITLE0=Einleitung - Die Schöpfung Hob. 21/2 CD 3/3
TTITLE1=Nun verschwanden vor dem heiligen Strahles ... Verzweiflung, Wut und Schrecken - Die Schöpfung Hob. 21/2 CD 3/3
TTITLE2=Rollend in schäumenden Wellen - Die Schöpfung Hob. 21/2 CD 3/3
TTITLE3=Stimmt an die Saiten, ergreift die Leier - Die Schöpfung Hob. 21/2 CD 3/3
TTITLE4=Die Himmel erzählen die Ehre Gottes - Die Schöpfung Hob. 21/2 CD 3/3
TTITLE5=Nun scheint in vollem Glanze der Himmel - Die Schöpfung Hob. 21/2 CD 3/3
TTITLE6=Mit Würd" und Hohlheit angetan - Die Schöpfung Hob. 21/2 CD 3/3
TTITLE7=Singt dem Herrn olle Stimmen! - Die Schöpfung Hob. 21/2 CD 3/3
TTITLE8=Komm holder Lenz! - Der Frühling - Die Jahreszeiten  Hob. 21/3 CD 3/3
TTITLE9=Schon eilt froh der Ackersmann - Der Frühling - Die Jahreszeiten  Hob. 21/3 CD 3/3
TTITLE10=Heil! O Sonne, Heil! - Der  Sommer - Die Jahreszeiten  Hob. 21/3 CD 3/3
TTITLE11=Ach das Ungewitter naht! - Der  Sommer - Die Jahreszeiten  Hob. 21/3 CD 3/3
TTITLE12=Hier treibt ein dichter Kreis ... - Der  Herbst - Die Jahreszeiten  Hob. 21/3 CD 3/3
TTITLE13=Hört das laute Getön - Der  Herbst - Die Jahreszeiten  Hob. 21/3 CD 3/3
TTITLE14=Knurre, schnurre, knurre! - Der  Winter - Die Jahreszeiten  Hob. 21/3 CD 3/3
TTITLE15=Dann bricht der große Morgen an! - Der  Winter - Die Jahreszeiten  Hob. 21/3 CD 3/3
EXTD=YEAR: 1990
EXTT0=
EXTT1=
EXTT2=
EXTT3=
EXTT4=
EXTT5=
EXTT6=
EXTT7=
EXTT8=
EXTT9=
EXTT10=
EXTT11=
EXTT12=
EXTT13=
EXTT14=
EXTT15=
PLAYORDER=
